<svg width="240" height="40" viewBox="0 0 240 40" fill="none" xmlns="http://www.w3.org/2000/svg">
  <path d="M30 5H10C7.23858 5 5 7.23858 5 10V30C5 32.7614 7.23858 35 10 35H30C32.7614 35 35 32.7614 35 30V10C35 7.23858 32.7614 5 30 5Z" stroke="#3b82f6" stroke-width="3"/>
  <path d="M15 12.5L25 12.5" stroke="#3b82f6" stroke-width="3" stroke-linecap="round"/>
  <path d="M15 20L30 20" stroke="#3b82f6" stroke-width="3" stroke-linecap="round"/>
  <path d="M15 27.5L22.5 27.5" stroke="#3b82f6" stroke-width="3" stroke-linecap="round"/>
  <path d="M42 13.304V26.696H46.5C49.536 26.696 52 24.232 52 21.196V18.804C52 15.768 49.536 13.304 46.5 13.304H42Z" stroke="#3b82f6" stroke-width="2"/>
  <text x="60" y="26" font-family="Arial, sans-serif" font-weight="700" font-size="20" fill="#ffffff">BrowserSec</text>
</svg>
